<svg width="106" height="24" viewBox="0 0 106 24" fill="none" xmlns="http://www.w3.org/2000/svg">
<path d="M99.1855 5.83012C102.113 5.83012 104.486 3.34652 104.486 0.282834C104.486 0.0345584 104.775 -0.103445 104.918 0.0939079C105.597 1.0262 106 2.1902 106 3.45271C106 6.5164 103.627 9 100.7 9C98.2137 9 96.1273 7.20839 95.5551 4.79144C95.5116 4.60802 95.7245 4.48848 95.865 4.60683C96.7736 5.37211 97.9285 5.83012 99.1855 5.83012Z" fill="black"/>
<path fill-rule="evenodd" clip-rule="evenodd" d="M6.71831 7.5C8.8288 7.5 10.712 8.47775 11.9437 10.007C13.1753 8.47775 15.0585 7.5 17.169 7.5C20.8794 7.5 23.8873 10.5221 23.8873 14.25H23.8873V23.625H20.9014L20.9014 14.25C20.9014 12.1789 19.2304 10.5 17.169 10.5C15.1077 10.5 13.4366 12.1789 13.4366 14.25H13.4366V23.625H10.4507V14.25C10.4507 12.1789 8.77965 10.5 6.71831 10.5C4.65697 10.5 2.98592 12.1789 2.98592 14.25V23.625H0V14.25C0 10.5221 3.00789 7.5 6.71831 7.5Z" fill="black"/>
<path fill-rule="evenodd" clip-rule="evenodd" d="M35.0843 24C39.6193 24 43.2956 20.3063 43.2956 15.75C43.2956 11.1937 39.6193 7.5 35.0843 7.5C30.5494 7.5 26.873 11.1937 26.873 15.75C26.873 20.3063 30.5494 24 35.0843 24ZM35.0843 21C37.9701 21 40.3096 18.6495 40.3096 15.75C40.3096 12.8505 37.9701 10.5 35.0843 10.5C32.1984 10.5 29.8589 12.8505 29.8589 15.75C29.8589 18.6495 32.1984 21 35.0843 21Z" fill="black"/>
<path fill-rule="evenodd" clip-rule="evenodd" d="M53.7464 24C58.2814 24 61.9577 20.3063 61.9577 15.75C61.9577 11.1937 58.2814 7.5 53.7464 7.5C49.2115 7.5 45.5352 11.1937 45.5352 15.75C45.5352 20.3063 49.2115 24 53.7464 24ZM53.7465 21C56.6324 21 58.9718 18.6495 58.9718 15.75C58.9718 12.8505 56.6324 10.5 53.7465 10.5C50.8606 10.5 48.5211 12.8505 48.5211 15.75C48.5211 18.6495 50.8606 21 53.7465 21Z" fill="black"/>
<path fill-rule="evenodd" clip-rule="evenodd" d="M78.3805 14.25C78.3805 10.5221 75.3726 7.5 71.6622 7.5C67.9517 7.5 64.9438 10.5221 64.9438 14.25V23.625H67.9298V14.25H67.9298C67.9298 12.1789 69.6009 10.5 71.6622 10.5C73.7236 10.5 75.3946 12.1789 75.3946 14.25V23.625H78.3805V14.25H78.3805Z" fill="black"/>
<path fill-rule="evenodd" clip-rule="evenodd" d="M93.9933 21.7181C93.4545 22.4611 92.7063 23.0263 91.7571 23.4169C90.8232 23.8076 89.7276 24 88.4748 24C87.365 24 86.3607 23.8557 85.464 23.5642C84.572 23.2742 83.7876 22.8782 83.113 22.3746C82.4409 21.8728 81.8865 21.2964 81.4517 20.645L81.3662 20.5168L83.3771 18.4829L83.4993 18.6888C83.8169 19.2243 84.2181 19.707 84.7038 20.137C85.1854 20.5478 85.7434 20.8685 86.3794 21.0983C87.0292 21.3275 87.7505 21.4434 88.5452 21.4434C89.2502 21.4434 89.8468 21.358 90.3387 21.1922L90.3403 21.1916C90.8483 21.0254 91.2121 20.7892 91.4489 20.4932L91.4495 20.4925C91.7022 20.1801 91.8297 19.8117 91.8297 19.3781C91.8297 18.9676 91.6914 18.6091 91.409 18.2949L91.4074 18.2931L91.4058 18.2913C91.1491 17.9906 90.6359 17.7329 89.8171 17.5454L86.4193 16.7632L86.4183 16.763C85.467 16.5544 84.6724 16.2557 84.0403 15.8623C83.4085 15.469 82.9308 14.9887 82.6158 14.4187L82.6147 14.4167C82.3019 13.8337 82.1468 13.186 82.1468 12.4776C82.1468 11.5567 82.3913 10.7219 82.8813 9.97853L82.8818 9.97775C83.3877 9.21849 84.111 8.62097 85.0428 8.18204C85.9795 7.7249 87.0864 7.5 88.3576 7.5C89.7718 7.5 91.0057 7.77322 92.0531 8.32708C93.0983 8.86403 93.9804 9.66031 94.6995 10.7109L94.7895 10.8424L92.8263 12.7454L92.704 12.5566C92.1227 11.6592 91.4724 11.0288 90.7571 10.652L90.7551 10.6509L90.753 10.6497C90.0511 10.257 89.2081 10.0566 88.2169 10.0566C87.4816 10.0566 86.8908 10.1576 86.4364 10.3503C85.9767 10.5453 85.6496 10.8016 85.44 11.1122C85.2433 11.411 85.1434 11.7534 85.1434 12.1456C85.1434 12.5879 85.2896 12.9692 85.5858 13.298C85.8905 13.6191 86.4772 13.8934 87.3893 14.0967L87.39 14.0968L90.5307 14.808L90.5312 14.8081C92.0459 15.1433 93.1524 15.6603 93.8154 16.3811C94.4765 17.1 94.8028 18.0091 94.8028 19.0936C94.8028 20.0939 94.5346 20.9715 93.9933 21.7181Z" fill="black"/>
</svg>
